<svg xmlns="http://www.w3.org/2000/svg" xmlns:xlink="http://www.w3.org/1999/xlink" width="72" height="72" viewBox="0 0 72 72">
  <defs>
    <filter id="Ellipse_54" x="0" y="0" width="72" height="72" filterUnits="userSpaceOnUse">
      <feOffset dy="3" input="SourceAlpha"/>
      <feGaussianBlur stdDeviation="3" result="blur"/>
      <feFlood flood-opacity="0.161"/>
      <feComposite operator="in" in2="blur"/>
      <feComposite in="SourceGraphic"/>
    </filter>
  </defs>
  <g id="Group_14214" data-name="Group 14214" transform="translate(-1250 -4061)">
    <g transform="matrix(1, 0, 0, 1, 1250, 4061)" filter="url(#Ellipse_54)">
      <circle id="Ellipse_54-2" data-name="Ellipse 54" cx="27" cy="27" r="27" transform="translate(9 6)" fill="#fff"/>
    </g>
    <g id="Group_14187" data-name="Group 14187" transform="translate(1269 4077)">
      <rect id="Rectangle_2962" data-name="Rectangle 2962" width="33.37" height="33.37" fill="#1e2323" opacity="0.005"/>
      <path id="Path_71510" data-name="Path 71510" d="M222.579,40.389a1.229,1.229,0,0,0,0-1.645l-9.424-10.358a1.112,1.112,0,0,0-1.684,0,1.4,1.4,0,0,0,0,1.851l7.74,8.507a1.229,1.229,0,0,1,0,1.645l-7.74,8.507a1.4,1.4,0,0,0,0,1.851,1.112,1.112,0,0,0,1.684,0Z" transform="translate(-199.998 -23.134)" fill="#1e2323"/>
    </g>
  </g>
</svg>
