<svg xmlns="http://www.w3.org/2000/svg" width="56.232" height="51.738" viewBox="0 0 56.232 51.738">
  <path id="Path_71530" data-name="Path 71530" d="M137.281,53.419a22.084,22.084,0,0,0-3.5.273V48.616a2.065,2.065,0,0,0-2.059-2.066h-9.546V44.763A3.78,3.78,0,0,0,118.4,40.99H105.931a3.779,3.779,0,0,0-3.773,3.773V46.55H92.612a2.066,2.066,0,0,0-2.06,2.066v9.3a4.453,4.453,0,0,0,2.3,3.895V77.253a3.325,3.325,0,0,0,3.35,3.325h8.964c0,.218-.036.43-.036.648a11.46,11.46,0,0,0,22.793,1.745c4.488,0,9.019-1.3,9.455-3.78,4.688,0,9.4-1.448,9.4-4.173V57.592a.926.926,0,0,0,0-.188c-.242-2.617-4.888-3.986-9.5-3.986Zm-33.313-8.655a1.956,1.956,0,0,1,1.956-1.956H118.4a1.956,1.956,0,0,1,1.957,1.956V46.55H103.974Zm-11.6,13.15v-9.3a.242.242,0,0,1,.243-.248h39.109a.242.242,0,0,1,.243.248v5.451c-2.326.66-4.022,1.781-4.155,3.338a1,1,0,0,0,0,.188v2.956H116.985v-1.9a.909.909,0,0,0-.909-.909h-7.82a.909.909,0,0,0-.908.909v1.9H94.992a2.635,2.635,0,0,1-2.623-2.635Zm22.8,1.66v4.064L112.14,65.3l-3.028-1.665V59.573ZM96.2,78.762A1.514,1.514,0,0,1,94.7,77.254V62.347h12.652v1.817h0a.9.9,0,0,0,.466.794l3.913,2.168a.9.9,0,0,0,.878,0l3.913-2.168a.9.9,0,0,0,.466-.794V62.347H127.79V65.9c-4.561.03-9.122,1.393-9.34,3.979h0a11.363,11.363,0,0,0-13.04,8.843Zm20.424,12.114a9.575,9.575,0,1,0-.025,0ZM135.6,78.8c0,.793-2.659,2.326-7.535,2.356a11.313,11.313,0,0,0-.309-2.538h.164a17.8,17.8,0,0,0,6.754-1.163,7.329,7.329,0,0,0,.927-.461Zm0-4.355h0a.337.337,0,0,1,0,.109c-.115.327-.606.788-1.611,1.211a16.209,16.209,0,0,1-6.057,1.017h-.745a11.577,11.577,0,0,0-1.569-2.641c.745.073,1.52.115,2.314.115a17.915,17.915,0,0,0,6.754-1.157,7.31,7.31,0,0,0,.927-.466Zm-1.635-3.028h0a16.358,16.358,0,0,1-6.057,1.011,18.768,18.768,0,0,1-4.688-.557,11.493,11.493,0,0,0-2.865-1.484.608.608,0,0,1-.121-.315c0-.8,2.707-2.356,7.674-2.356s7.692,1.551,7.692,2.374c0,.321-.5.86-1.635,1.345Zm10.993,3.6c0,.793-2.665,2.326-7.541,2.356V74.837h.769a4.136,4.136,0,0,0,.684-.036h.188l.8-.085h.06l.769-.1h.085l.66-.121.2-.042.5-.115.351-.085.309-.091.5-.158.139-.049c.206-.073.406-.151.606-.23h.017a8.423,8.423,0,0,0,.9-.448Zm0-4.355c0,.793-2.665,2.326-7.541,2.356V70.476h.769a4.136,4.136,0,0,0,.684-.036h.188l.8-.079h.06l.769-.1h.085l.66-.115.194-.091.5-.115.351-.085.309-.091.5-.158.139-.049c.206-.073.406-.151.606-.23h.024a8.421,8.421,0,0,0,.9-.448Zm0-4.355c0,.8-2.726,2.35-7.68,2.35h-.357c-1.139-1.545-4.107-2.423-7.317-2.683V64.51a7.486,7.486,0,0,0,.908.448c.194.085.4.164.606.236l.133.049.5.158.309.085.351.091.5.115.194.036.66.121h.085c.254.042.515.079.775.109h.055l.8.079h.194l.684.042h1.811l.69-.042h.182l.806-.079h.055a4.8,4.8,0,0,0,.775-.109h.079l.666-.121.188-.036.5-.115.345-.091h0a2.82,2.82,0,0,0,.315-.091l.491-.151.145-.049c.206-.073.406-.151.606-.23a8.3,8.3,0,0,0,.9-.442Zm0-4.355c0,.8-2.707,2.356-7.68,2.356s-7.674-1.557-7.674-2.356V60.179a8.7,8.7,0,0,0,.921.461,20,20,0,0,0,13.525-.03,8.219,8.219,0,0,0,.909-.43Zm-1.641-3.028h0a18.539,18.539,0,0,1-12.114,0c-1.133-.479-1.635-1.024-1.635-1.345,0-.8,2.707-2.356,7.674-2.356s7.717,1.569,7.717,2.368c0,.321-.509.866-1.641,1.375ZM114.792,78.671h0a1.818,1.818,0,0,0,1.817,1.817h.085a3.785,3.785,0,0,1,.709.1,3.634,3.634,0,0,1,.1,7.044v.406a.909.909,0,0,1-1.817,0v-.388a3.633,3.633,0,0,1-2.719-3.513.908.908,0,1,1,1.817,0,1.817,1.817,0,1,0,1.817-1.817,3.574,3.574,0,0,1-.812-.1,3.634,3.634,0,0,1-.1-7.038v-.763a.909.909,0,1,1,1.817,0v.751h0a3.634,3.634,0,0,1,2.719,3.507.908.908,0,0,1-1.817,0,1.817,1.817,0,1,0-3.634,0Z" transform="translate(-90.552 -40.99)" fill="#fff"/>
</svg>
